<svg width="151" height="89" viewBox="0 0 151 89" fill="none" xmlns="http://www.w3.org/2000/svg">
<path d="M102.688 42.4147V0H99.2288C99.2288 0.118117 99.218 0.225496 99.2073 0.343613C97.585 21.551 75.6034 40.0631 51.6127 42.565V0.257709H48.1532C48.1532 0.375826 48.1425 0.483205 48.1318 0.601322C46.4987 21.9697 24.2055 40.6 0 42.8764V45.6253H48.3896V88.04H51.8491C51.8491 87.9219 51.8598 87.8145 51.8706 87.6964C53.4821 66.5964 75.2488 48.1702 99.0998 45.5179V87.793H102.559C102.559 87.6749 102.57 87.5675 102.581 87.4494C104.214 66.081 126.507 47.4508 150.713 45.1636V42.4147H102.688Z" fill="#F0EFEA"/>
</svg>
