<svg width="125" height="43" viewBox="0 0 125 43" fill="none" xmlns="http://www.w3.org/2000/svg">
<path d="M107.221 42.1502C96.0364 42.1502 90.0317 31.907 90.0317 21.1929C90.0317 14.5996 93.6227 0.00012207 108.281 0.00012207H120.526V13.8932H117.936L117.877 12.0682C117.7 6.29909 114.933 2.59035 108.517 2.59035H107.516C101.511 2.59035 97.4492 6.6523 97.3903 13.8932L97.3315 26.962C97.2726 34.9682 101.452 39.5011 107.516 39.5011H107.928C113.285 39.5011 116.699 35.6158 116.699 30.6708V24.725H106.809V21.6638H125V24.725H121.762V41.2083H119.172V37.2052H117.347C115.345 40.3841 111.813 42.1502 107.81 42.1502H107.221Z" fill="white"/>
<path d="M61.2097 40.2075C59.9145 40.2075 58.9138 39.3834 58.4428 37.9705L47.7287 5.35718V38.9124H52.8503V41.2083H39.958V38.9124H44.903V2.29601H40.3112V0.00012207H52.0261L62.6814 32.7312L72.1004 0.00012207H83.4621V2.29601H78.7526V38.9124H84.0507V41.2083H68.4505V38.9124H73.5721V4.70963L64.1531 37.6173C63.6821 39.3245 62.7991 40.2075 61.2097 40.2075Z" fill="white"/>
<path d="M18.6025 42.1502C17.2486 42.1502 16.1889 41.4438 15.6591 39.9132L2.88457 2.29601H0V0.00012207H14.1874V2.29601H9.12467L20.1331 34.8505L30.082 2.29601H24.5483V0.00012207H36.2632V2.29601H32.9665L21.6637 39.4422C21.0162 41.5026 20.1331 42.1502 18.6025 42.1502Z" fill="white"/>
</svg>
